<svg width="26" height="23" viewBox="0 0 26 23" fill="none" xmlns="http://www.w3.org/2000/svg">
<path d="M24.2359 16.1926H7.95273L8.77031 14.5273L22.3547 14.5027C22.8141 14.5027 23.2078 14.1746 23.2898 13.7207L25.1711 3.19062C25.2203 2.91445 25.1465 2.63008 24.966 2.41406C24.8768 2.30775 24.7656 2.22211 24.64 2.16309C24.5144 2.10407 24.3774 2.07308 24.2387 2.07227L6.95742 2.01484L6.80977 1.32031C6.7168 0.877344 6.31758 0.554688 5.86367 0.554688H1.63906C1.38307 0.554688 1.13756 0.656381 0.956539 0.837398C0.775522 1.01841 0.673828 1.26393 0.673828 1.51992C0.673828 1.77592 0.775522 2.02143 0.956539 2.20245C1.13756 2.38346 1.38307 2.48516 1.63906 2.48516H5.08164L5.72695 5.55312L7.31562 13.2449L5.27031 16.5836C5.1641 16.727 5.10012 16.8972 5.08562 17.075C5.07113 17.2528 5.10669 17.4312 5.18828 17.5898C5.35234 17.9152 5.6832 18.1203 6.04961 18.1203H7.7668C7.40071 18.6065 7.20298 19.1988 7.20352 19.8074C7.20352 21.3551 8.46133 22.6129 10.009 22.6129C11.5566 22.6129 12.8145 21.3551 12.8145 19.8074C12.8145 19.1977 12.6121 18.6043 12.2512 18.1203H16.6562C16.2902 18.6065 16.0924 19.1988 16.093 19.8074C16.093 21.3551 17.3508 22.6129 18.8984 22.6129C20.4461 22.6129 21.7039 21.3551 21.7039 19.8074C21.7039 19.1977 21.5016 18.6043 21.1406 18.1203H24.2387C24.7691 18.1203 25.2039 17.6883 25.2039 17.1551C25.2023 16.8994 25.0996 16.6546 24.9183 16.4743C24.737 16.294 24.4917 16.1927 24.2359 16.1926ZM7.35938 3.91797L23.1039 3.96992L21.5617 12.6051L9.19414 12.627L7.35938 3.91797ZM10.009 20.6715C9.5332 20.6715 9.14492 20.2832 9.14492 19.8074C9.14492 19.3316 9.5332 18.9434 10.009 18.9434C10.4848 18.9434 10.873 19.3316 10.873 19.8074C10.873 20.0366 10.782 20.2564 10.62 20.4184C10.4579 20.5805 10.2381 20.6715 10.009 20.6715ZM18.8984 20.6715C18.4227 20.6715 18.0344 20.2832 18.0344 19.8074C18.0344 19.3316 18.4227 18.9434 18.8984 18.9434C19.3742 18.9434 19.7625 19.3316 19.7625 19.8074C19.7625 20.0366 19.6715 20.2564 19.5094 20.4184C19.3474 20.5805 19.1276 20.6715 18.8984 20.6715Z" fill="black"/>
</svg>
