<svg width="24" height="20" viewBox="0 0 24 20" fill="none" xmlns="http://www.w3.org/2000/svg">
<path d="M21.333 9.99999V4.16666H23.6663V11.1667H21.333M21.333 15.8333H23.6663V13.5H21.333M9.66634 11.1667C12.7813 11.1667 18.9997 12.73 18.9997 15.8333V19.3333H0.333008V15.8333C0.333008 12.73 6.55134 11.1667 9.66634 11.1667ZM9.66634 0.666656C10.904 0.666656 12.091 1.15832 12.9662 2.03349C13.8413 2.90866 14.333 4.09565 14.333 5.33332C14.333 6.571 13.8413 7.75799 12.9662 8.63315C12.091 9.50832 10.904 9.99999 9.66634 9.99999C8.42867 9.99999 7.24168 9.50832 6.36651 8.63315C5.49134 7.75799 4.99967 6.571 4.99967 5.33332C4.99967 4.09565 5.49134 2.90866 6.36651 2.03349C7.24168 1.15832 8.42867 0.666656 9.66634 0.666656ZM9.66634 13.3833C6.20134 13.3833 2.54967 15.0867 2.54967 15.8333V17.1167H16.783V15.8333C16.783 15.0867 13.1313 13.3833 9.66634 13.3833ZM9.66634 2.88332C9.01656 2.88332 8.39339 3.14145 7.93393 3.60091C7.47447 4.06038 7.21634 4.68354 7.21634 5.33332C7.21634 5.9831 7.47447 6.60627 7.93393 7.06573C8.39339 7.5252 9.01656 7.78332 9.66634 7.78332C10.3161 7.78332 10.9393 7.5252 11.3988 7.06573C11.8582 6.60627 12.1163 5.9831 12.1163 5.33332C12.1163 4.68354 11.8582 4.06038 11.3988 3.60091C10.9393 3.14145 10.3161 2.88332 9.66634 2.88332Z" fill="black"/>
</svg>
